<?xml version="1.0" encoding="utf-8"?>
<svg viewBox="1542.699951171875 971.6000366210938 422.3997802734375 456.79998779296875" width="422.3997802734375" height="456.79998779296875" xmlns="http://www.w3.org/2000/svg"><g transform="matrix(1, 0, 0, 1, 0, 0)">
	<path class="st6" d="M1832.7,1174.9c0-21.8-17.6-39.4-39.4-39.4c-21.7,0-39.3,17.6-39.4,39.2c-0.1-21.7-17.7-39.2-39.4-39.2&#10;&#9;&#9;c-21.8,0-39.4,17.6-39.4,39.4c0,58.3,78.4,103,78.8,103.2C1753.9,1278.1,1832.7,1233.2,1832.7,1174.9z" style="fill: rgb(204, 204, 204); opacity: 1;"/>
	<path class="st2" d="M1814.4,1312c-18,10.2-32.5,17.2-54.1,19.8c-25.2,3.1-41.2-4.7-41.2-9.2c0-1.8,24.4,2.5,43.5,2.4&#10;&#9;&#9;c20.6-0.1,30.2-12.6,28.4-19.1s-11.8-6.3-27.1-6.8c-24.4-0.8-34.2-9.4-80.8-11c-43.4-1.6-58.8,25.7-77.7,45.9&#10;&#9;&#9;c-11.3,12.1-62.7,56.9-62.7,56.9c37.5,37.5,63.6,36.8,74.8,21.6c5.2-6.2,10.2-15.7,34.2-30.2c24-14.5,65.5-1.8,95.9-4.2&#10;&#9;&#9;c18.7-1.4,64-27.1,80.4-41.8c14.3-12.8,57.1-49.7,51.5-55.3C1864.4,1266,1835.7,1299.9,1814.4,1312z M1890.4,987.5&#10;&#9;&#9;c-5.2,6.2-10.2,15.7-34.2,30.2c-24,14.5-65.5,1.8-95.9,4.2c-18.7,1.4-64,27.1-80.4,41.8c-14.3,12.8-57.1,49.7-51.5,55.3&#10;&#9;&#9;c15,15,43.7-18.9,65-31.1c18-10.2,32.5-17.2,54.1-19.8c25.2-3.1,41.2,4.7,41.2,9.2c0,1.8-24.4-2.5-43.5-2.4&#10;&#9;&#9;c-20.6,0.1-30.2,12.6-28.4,19.1s11.8,6.3,27.1,6.8c24.4,0.8,34.2,9.4,80.8,11c43.4,1.6,58.8-25.7,77.7-45.9&#10;&#9;&#9;c11.3-12.1,62.7-56.9,62.7-56.9C1927.7,971.6,1901.6,972.3,1890.4,987.5z" style="fill: rgb(204, 204, 204); opacity: 1;"/>
</g></svg>