<?xml version="1.0" encoding="UTF-8"?>
<svg xmlns="http://www.w3.org/2000/svg" xmlns:xlink="http://www.w3.org/1999/xlink" width="2834.88" height="2834.88" viewBox="0 0 2834.88 2834.88">
<path fill-rule="evenodd" fill="rgb(0%, 0%, 0%)" fill-opacity="1" d="M 1160.511719 2169.933594 C 1153.28125 2168.300781 1147.671875 2162.058594 1147.171875 2154.285156 C 1147.171875 2154.285156 1142.421875 2079.511719 1141.261719 2061.183594 C 1124.601562 2032.425781 1009.320312 1834.089844 974.628906 1791.851562 C 954.164062 1766.941406 939.976562 1728.390625 932.859375 1690.351562 C 925.726562 1652.238281 925.730469 1614.789062 931.972656 1592.488281 C 940.351562 1562.558594 977.410156 1481.160156 1021.640625 1430.039062 C 1030.199219 1420.148438 1039.089844 1411.410156 1048.109375 1404.191406 L 1049.828125 1218.519531 C 1050.410156 1155.78125 1101.738281 1105.390625 1164.480469 1105.96875 C 1194.609375 1106.25 1223.390625 1118.480469 1244.5 1139.980469 C 1250.671875 1146.269531 1256.039062 1153.191406 1260.53125 1160.601562 C 1265.390625 1152.601562 1271.261719 1145.171875 1278.050781 1138.5 C 1299.550781 1117.390625 1328.558594 1105.691406 1358.691406 1105.96875 C 1388.820312 1106.25 1417.601562 1118.480469 1438.710938 1139.980469 C 1448.839844 1150.300781 1456.800781 1162.339844 1462.308594 1175.410156 C 1483.28125 1147.878906 1516.53125 1130.238281 1553.789062 1130.589844 C 1606.398438 1131.070312 1650.328125 1167.238281 1662.808594 1215.898438 C 1682.511719 1193.921875 1711.21875 1180.191406 1743.058594 1180.488281 C 1801.828125 1181.03125 1849.03125 1229.109375 1848.480469 1287.878906 L 1847.25 1421.179688 C 1847.410156 1422.058594 1847.511719 1422.960938 1847.53125 1423.871094 C 1847.53125 1423.871094 1849.738281 1509.378906 1834.210938 1656.980469 C 1819.648438 1795.269531 1728.308594 2006.066406 1716.148438 2033.660156 L 1710.398438 2155.726562 C 1710.148438 2160.9375 1707.601562 2165.503906 1703.769531 2168.472656 C 1700.738281 2171.0625 1696.789062 2172.613281 1692.488281 2172.574219 C 1534.21875 2171.113281 1324.789062 2172.539062 1166.53125 2171.078125 C 1164.410156 2171.058594 1162.378906 2170.65625 1160.511719 2169.933594 Z M 1082.601562 1384.921875 C 1084.28125 1384.410156 1085.949219 1383.96875 1087.609375 1383.609375 C 1126.839844 1374.980469 1174.039062 1385.230469 1240.960938 1411.308594 L 1242.730469 1220.300781 C 1242.921875 1199.269531 1234.75 1179.03125 1220.019531 1164.019531 C 1205.289062 1149.011719 1185.191406 1140.46875 1164.160156 1140.28125 C 1120.371094 1139.871094 1084.539062 1175.050781 1084.140625 1218.839844 Z M 1276.441406 1425.480469 C 1301.730469 1435.171875 1327.53125 1443.460938 1349.039062 1452.871094 C 1368.449219 1461.371094 1384.578125 1471 1395.160156 1482.550781 C 1400.019531 1487.851562 1404.039062 1493.941406 1407.148438 1500.519531 C 1408.519531 1499.351562 1409.859375 1498.128906 1411.148438 1496.851562 C 1426.160156 1482.121094 1434.699219 1462.03125 1434.898438 1441 L 1436.929688 1220.300781 C 1437.128906 1199.269531 1428.960938 1179.03125 1414.230469 1164.019531 C 1399.488281 1149.011719 1379.398438 1140.46875 1358.371094 1140.28125 C 1337.339844 1140.078125 1317.089844 1148.25 1302.089844 1162.988281 C 1287.078125 1177.71875 1278.539062 1197.808594 1278.339844 1218.839844 Z M 1414.738281 1537.269531 C 1414.300781 1551.328125 1410.089844 1565.261719 1401.640625 1576.941406 C 1388.421875 1595.210938 1364.820312 1608.941406 1327.789062 1607.199219 C 1288.839844 1605.378906 1257.480469 1605.148438 1233.539062 1605.570312 C 1290.601562 1639.050781 1379.519531 1697.871094 1428.691406 1764.03125 C 1434.339844 1771.621094 1432.761719 1782.378906 1425.160156 1788.03125 C 1417.558594 1793.679688 1406.800781 1792.089844 1401.148438 1784.488281 C 1328.769531 1687.109375 1165.089844 1607.109375 1165.089844 1607.109375 C 1158.289062 1603.769531 1154.488281 1596.371094 1155.730469 1588.898438 C 1156.960938 1581.441406 1162.949219 1575.660156 1170.460938 1574.691406 C 1170.460938 1574.691406 1222.320312 1567.910156 1329.390625 1572.929688 C 1351.328125 1573.960938 1366.011719 1567.648438 1373.839844 1556.828125 C 1384.929688 1541.5 1382.070312 1519.039062 1369.871094 1505.730469 C 1362.019531 1497.171875 1349.679688 1490.609375 1335.28125 1484.300781 C 1310.03125 1473.25 1278.789062 1463.789062 1249.5 1451.710938 C 1179.859375 1422.988281 1133.371094 1408.671875 1094.980469 1417.121094 C 1072.730469 1422.011719 1050.878906 1445.949219 1030.828125 1473.851562 C 997.851562 1519.730469 971.628906 1578.109375 965.011719 1601.75 C 959.761719 1620.488281 960.585938 1651.980469 966.585938 1684.039062 C 972.597656 1716.171875 983.855469 1749.03125 1001.140625 1770.070312 C 1039.21875 1816.429688 1172.980469 2047.488281 1172.980469 2047.488281 C 1174.300781 2049.78125 1175.078125 2052.347656 1175.25 2054.988281 L 1180.449219 2136.886719 C 1331.621094 2138.109375 1525.28125 2136.929688 1676.878906 2138.128906 L 1682.03125 2028.835938 C 1682.128906 2026.6875 1682.640625 2024.574219 1683.519531 2022.613281 C 1683.519531 2022.613281 1784.910156 1797.570312 1800.089844 1653.390625 C 1805.261719 1604.230469 1808.441406 1562.078125 1810.378906 1527.871094 C 1791.449219 1544.320312 1766.660156 1554.191406 1739.609375 1553.941406 C 1700.128906 1553.570312 1665.878906 1531.75 1647.800781 1499.660156 C 1627.628906 1532.488281 1591.230469 1554.25 1549.890625 1553.871094 L 1549.878906 1553.871094 C 1508.730469 1553.488281 1472.890625 1531.269531 1453.261719 1498.320312 C 1448.289062 1506.671875 1442.238281 1514.410156 1435.191406 1521.339844 C 1428.960938 1527.460938 1422.089844 1532.789062 1414.738281 1537.269531 Z M 1814.179688 1287.558594 C 1814.539062 1247.738281 1782.558594 1215.171875 1742.738281 1214.800781 C 1702.921875 1214.429688 1670.351562 1246.410156 1669.980469 1286.230469 L 1668.5 1446.859375 C 1668.128906 1486.679688 1700.109375 1519.261719 1739.929688 1519.628906 C 1779.75 1519.988281 1812.320312 1488.011719 1812.691406 1448.191406 Z M 1632.039062 1244.921875 C 1632.441406 1201.128906 1597.269531 1165.300781 1553.480469 1164.898438 C 1509.679688 1164.488281 1473.851562 1199.671875 1473.449219 1243.460938 L 1471.640625 1439.53125 C 1471.230469 1483.328125 1506.410156 1519.148438 1550.199219 1519.558594 C 1594 1519.960938 1629.828125 1484.789062 1630.230469 1441 Z M 1433.300781 939.660156 C 1433.210938 949.128906 1425.460938 956.75 1415.988281 956.660156 C 1406.519531 956.570312 1398.898438 948.820312 1398.988281 939.351562 L 1401.351562 679.28125 C 1401.429688 669.808594 1409.191406 662.191406 1418.660156 662.28125 C 1428.128906 662.359375 1435.738281 670.121094 1435.660156 679.589844 Z M 1114.261719 1019.621094 C 1118.929688 1027.851562 1116.039062 1038.328125 1107.808594 1043.011719 C 1099.570312 1047.679688 1089.089844 1044.789062 1084.421875 1036.558594 L 956.554688 811.320312 C 951.878906 803.078125 954.769531 792.601562 963.003906 787.929688 C 971.234375 783.25 981.714844 786.148438 986.390625 794.378906 Z M 882.183594 1248.140625 C 890.351562 1252.941406 893.085938 1263.460938 888.292969 1271.621094 C 883.496094 1279.789062 872.976562 1282.53125 864.8125 1277.730469 L 643.339844 1147.691406 C 635.175781 1142.898438 632.4375 1132.371094 637.230469 1124.210938 C 642.027344 1116.039062 652.546875 1113.308594 660.714844 1118.101562 Z M 793.375 1564.011719 C 802.84375 1564.011719 810.53125 1571.699219 810.53125 1581.171875 C 810.53125 1590.628906 802.84375 1598.320312 793.375 1598.320312 L 537.640625 1598.320312 C 528.171875 1598.320312 520.484375 1590.628906 520.484375 1581.171875 C 520.484375 1571.699219 528.171875 1564.011719 537.640625 1564.011719 Z M 2297 1549.890625 C 2306.46875 1549.890625 2314.160156 1557.578125 2314.160156 1567.050781 C 2314.160156 1576.519531 2306.46875 1584.199219 2297 1584.199219 L 2041.269531 1584.199219 C 2031.800781 1584.199219 2024.109375 1576.519531 2024.109375 1567.050781 C 2024.109375 1557.578125 2031.800781 1549.890625 2041.269531 1549.890625 Z M 2166.988281 1105.878906 C 2175.160156 1101.078125 2185.679688 1103.820312 2190.46875 1111.980469 C 2195.269531 1120.148438 2192.53125 1130.671875 2184.371094 1135.460938 L 1962.890625 1265.511719 C 1954.730469 1270.300781 1944.210938 1267.558594 1939.410156 1259.398438 C 1934.621094 1251.230469 1937.359375 1240.710938 1945.519531 1235.921875 Z M 1836.230469 787.320312 C 1840.910156 779.089844 1851.390625 776.199219 1859.621094 780.871094 C 1867.859375 785.539062 1870.75 796.03125 1866.070312 804.261719 L 1738.210938 1029.5 C 1733.53125 1037.730469 1723.050781 1040.621094 1714.820312 1035.949219 C 1706.578125 1031.269531 1703.691406 1020.789062 1708.371094 1012.558594 L 1836.230469 787.320312 "/>
</svg>
