<?xml version="1.0" encoding="UTF-8"?>
<svg xmlns="http://www.w3.org/2000/svg" xmlns:xlink="http://www.w3.org/1999/xlink" width="2098.8" height="2098.8" viewBox="0 0 2098.8 2098.8">
<defs>
<radialGradient id="radial-pattern-0" gradientUnits="userSpaceOnUse" cx="0" cy="0" fx="0" fy="0" r="1049.4" gradientTransform="matrix(1, 0, 0, 1, 1049.4, 1049.4)">
<stop offset="0" stop-color="rgb(100%, 100%, 100%)" stop-opacity="1"/>
<stop offset="0.125" stop-color="rgb(100%, 99.993896%, 99.884033%)" stop-opacity="1"/>
<stop offset="0.152344" stop-color="rgb(99.934387%, 99.961853%, 99.682617%)" stop-opacity="1"/>
<stop offset="0.164062" stop-color="rgb(99.739075%, 99.894714%, 99.591064%)" stop-opacity="1"/>
<stop offset="0.214844" stop-color="rgb(99.607849%, 99.850464%, 99.530029%)" stop-opacity="1"/>
<stop offset="0.226562" stop-color="rgb(99.595642%, 99.694824%, 99.269104%)" stop-opacity="1"/>
<stop offset="0.25" stop-color="rgb(99.487305%, 99.462891%, 99.034119%)" stop-opacity="1"/>
<stop offset="0.261719" stop-color="rgb(99.287415%, 99.349976%, 98.999023%)" stop-opacity="1"/>
<stop offset="0.28125" stop-color="rgb(99.186707%, 99.307251%, 98.809814%)" stop-opacity="1"/>
<stop offset="0.300781" stop-color="rgb(99.058533%, 99.256897%, 98.606873%)" stop-opacity="1"/>
<stop offset="0.34375" stop-color="rgb(98.86322%, 99.185181%, 98.413086%)" stop-opacity="1"/>
<stop offset="0.363281" stop-color="rgb(98.789978%, 99.081421%, 98.181152%)" stop-opacity="1"/>
<stop offset="0.371094" stop-color="rgb(98.774719%, 98.884583%, 98.071289%)" stop-opacity="1"/>
<stop offset="0.410156" stop-color="rgb(98.76709%, 98.764038%, 98.017883%)" stop-opacity="1"/>
<stop offset="0.425781" stop-color="rgb(98.609924%, 98.713684%, 98.008728%)" stop-opacity="1"/>
<stop offset="0.441406" stop-color="rgb(98.413086%, 98.643494%, 97.845459%)" stop-opacity="1"/>
<stop offset="0.457031" stop-color="rgb(98.374939%, 98.622131%, 97.648621%)" stop-opacity="1"/>
<stop offset="0.488281" stop-color="rgb(98.365784%, 98.477173%, 97.544861%)" stop-opacity="1"/>
<stop offset="0.503906" stop-color="rgb(98.352051%, 98.28186%, 97.457886%)" stop-opacity="1"/>
<stop offset="0.53125" stop-color="rgb(98.347473%, 98.22998%, 97.396851%)" stop-opacity="1"/>
<stop offset="0.542969" stop-color="rgb(98.347473%, 98.220825%, 97.203064%)" stop-opacity="1"/>
<stop offset="0.570312" stop-color="rgb(98.217773%, 98.171997%, 97.042847%)" stop-opacity="1"/>
<stop offset="0.582031" stop-color="rgb(98.022461%, 98.109436%, 97.0047%)" stop-opacity="1"/>
<stop offset="0.605469" stop-color="rgb(97.955322%, 98.059082%, 96.781921%)" stop-opacity="1"/>
<stop offset="0.652344" stop-color="rgb(97.941589%, 97.848511%, 96.336365%)" stop-opacity="1"/>
<stop offset="0.695312" stop-color="rgb(97.929382%, 97.665405%, 96.086121%)" stop-opacity="1"/>
<stop offset="0.710938" stop-color="rgb(97.929382%, 97.657776%, 95.93811%)" stop-opacity="1"/>
<stop offset="0.726562" stop-color="rgb(97.782898%, 97.602844%, 95.73822%)" stop-opacity="1"/>
<stop offset="0.742188" stop-color="rgb(97.587585%, 97.538757%, 95.684814%)" stop-opacity="1"/>
<stop offset="0.773438" stop-color="rgb(97.538757%, 97.518921%, 95.593262%)" stop-opacity="1"/>
<stop offset="0.785156" stop-color="rgb(97.538757%, 97.509766%, 95.399475%)" stop-opacity="1"/>
<stop offset="0.808594" stop-color="rgb(97.398376%, 97.332764%, 95.233154%)" stop-opacity="1"/>
<stop offset="0.820312" stop-color="rgb(97.190857%, 97.076416%, 95.068359%)" stop-opacity="1"/>
<stop offset="0.863281" stop-color="rgb(97.053528%, 96.963501%, 94.842529%)" stop-opacity="1"/>
<stop offset="0.894531" stop-color="rgb(96.858215%, 96.896362%, 94.715881%)" stop-opacity="1"/>
<stop offset="0.917969" stop-color="rgb(96.731567%, 96.855164%, 94.648743%)" stop-opacity="1"/>
<stop offset="0.925781" stop-color="rgb(96.725464%, 96.742249%, 94.412231%)" stop-opacity="1"/>
<stop offset="0.960938" stop-color="rgb(96.563721%, 96.492004%, 94.047546%)" stop-opacity="1"/>
<stop offset="0.980469" stop-color="rgb(96.362305%, 96.333313%, 93.809509%)" stop-opacity="1"/>
<stop offset="1" stop-color="rgb(96.316528%, 96.316528%, 93.763733%)" stop-opacity="1"/>
</radialGradient>
</defs>
<path fill-rule="nonzero" fill="url(#radial-pattern-0)" d="M 0 0 L 0 2098.800781 L 2098.800781 2098.800781 L 2098.800781 0 Z M 0 0 "/>
<path fill-rule="nonzero" fill="rgb(100%, 100%, 100%)" fill-opacity="1" d="M 573.144531 1075.039062 C 571.121094 1082.730469 566.296875 1095.300781 555.371094 1103.019531 C 546.410156 1109.339844 534.675781 1111.421875 520.421875 1109.25 C 524.21875 1095.328125 530.910156 1085.46875 540.339844 1079.871094 C 551.855469 1073.019531 565.300781 1073.730469 573.144531 1075.039062 "/>
<path fill-rule="nonzero" fill="rgb(100%, 100%, 100%)" fill-opacity="1" d="M 643.511719 1125.339844 C 641.488281 1133.019531 636.664062 1145.601562 625.738281 1153.320312 C 616.777344 1159.628906 605.042969 1161.75 590.789062 1159.539062 C 594.585938 1145.628906 601.277344 1135.761719 610.707031 1130.160156 C 622.222656 1123.308594 635.667969 1124.03125 643.511719 1125.339844 "/>
<path fill-rule="nonzero" fill="rgb(100%, 100%, 100%)" fill-opacity="1" d="M 637.378906 1049.371094 C 637.285156 1062.75 629.722656 1073.890625 624.558594 1079.929688 C 619.015625 1074.199219 610.738281 1063.589844 609.804688 1050.238281 C 608.996094 1039.28125 613.289062 1028.171875 622.535156 1017.121094 C 632.460938 1027.550781 637.472656 1038.378906 637.378906 1049.371094 "/>
<path fill-rule="nonzero" fill="rgb(100%, 100%, 100%)" fill-opacity="1" d="M 551.855469 1039.28125 C 545.757812 1034.179688 536.449219 1024.441406 534.148438 1011.269531 C 532.246094 1000.441406 535.359375 988.960938 543.421875 977.011719 C 554.375 986.378906 560.445312 996.609375 561.503906 1007.570312 C 562.746094 1020.890625 556.367188 1032.75 551.855469 1039.28125 "/>
<path fill-rule="nonzero" fill="rgb(100%, 100%, 100%)" fill-opacity="1" d="M 480.054688 1025 C 472.992188 1028.578125 460.386719 1033.308594 447.347656 1030.261719 C 436.671875 1027.738281 427.304688 1020.359375 419.492188 1008.21875 C 432.441406 1001.839844 444.265625 1000.320312 454.722656 1003.648438 C 467.453125 1007.730469 475.824219 1018.28125 480.054688 1025 "/>
<path fill-rule="nonzero" fill="rgb(22.140503%, 21.780396%, 22.142029%)" fill-opacity="1" d="M 625.738281 1153.320312 C 616.777344 1159.628906 605.042969 1161.75 590.789062 1159.539062 C 594.585938 1145.628906 601.277344 1135.761719 610.707031 1130.160156 C 622.222656 1123.308594 635.667969 1124.03125 643.511719 1125.339844 C 641.488281 1133.019531 636.664062 1145.601562 625.738281 1153.320312 Z M 624.558594 1079.929688 C 619.015625 1074.199219 610.738281 1063.589844 609.804688 1050.238281 C 608.996094 1039.28125 613.289062 1028.171875 622.535156 1017.121094 C 632.460938 1027.550781 637.472656 1038.378906 637.378906 1049.371094 C 637.285156 1062.75 629.722656 1073.890625 624.558594 1079.929688 Z M 555.371094 1103.019531 C 546.410156 1109.339844 534.675781 1111.421875 520.421875 1109.25 C 524.21875 1095.328125 530.910156 1085.46875 540.339844 1079.871094 C 551.855469 1073.019531 565.300781 1073.730469 573.144531 1075.039062 C 571.121094 1082.730469 566.296875 1095.300781 555.371094 1103.019531 Z M 534.148438 1011.269531 C 532.246094 1000.441406 535.359375 988.960938 543.421875 977.011719 C 554.375 986.378906 560.445312 996.609375 561.503906 1007.570312 C 562.746094 1020.890625 556.367188 1032.75 551.855469 1039.28125 C 545.757812 1034.179688 536.449219 1024.441406 534.148438 1011.269531 Z M 447.347656 1030.261719 C 436.671875 1027.738281 427.304688 1020.359375 419.492188 1008.21875 C 432.441406 1001.839844 444.265625 1000.320312 454.722656 1003.648438 C 467.453125 1007.730469 475.824219 1018.28125 480.054688 1025 C 472.992188 1028.578125 460.386719 1033.308594 447.347656 1030.261719 Z M 635.261719 1091.320312 C 641.984375 1083.789062 652.753906 1068.820312 652.941406 1049.648438 C 653.128906 1032.03125 644.507812 1015.378906 627.359375 1000.160156 L 621.847656 995.28125 L 616.652344 1000.511719 C 600.5 1016.78125 592.96875 1033.960938 594.273438 1051.511719 C 594.742188 1057.648438 596.296875 1063.25 598.382812 1068.320312 C 595.800781 1066.859375 593.1875 1065.398438 590.539062 1063.960938 L 590.570312 1063.710938 L 589.546875 1063.371094 C 581.171875 1058.800781 572.457031 1054.320312 563.371094 1049.898438 C 569.316406 1041.871094 578.777344 1025.648438 577.003906 1006.230469 C 575.382812 988.710938 565.113281 973.019531 546.472656 959.640625 L 540.496094 955.351562 L 535.859375 961.070312 C 521.480469 978.941406 515.753906 996.769531 518.835938 1014.109375 C 520.140625 1021.449219 522.941406 1027.828125 526.304688 1033.339844 C 516.65625 1029.449219 506.636719 1025.679688 496.335938 1022.070312 C 492.628906 1014.878906 481.050781 995.808594 459.609375 988.859375 C 442.863281 983.480469 424.378906 986.75 404.742188 998.609375 L 398.453125 1002.398438 L 401.878906 1008.910156 C 412.644531 1029.171875 426.804688 1041.460938 443.953125 1045.449219 C 448.09375 1046.410156 452.140625 1046.820312 456.0625 1046.820312 C 471.652344 1046.820312 484.847656 1040.371094 491.136719 1036.699219 C 511.675781 1043.890625 530.847656 1051.789062 548.648438 1060.171875 C 543.296875 1061.351562 537.820312 1063.28125 532.527344 1066.421875 C 517.371094 1075.351562 507.601562 1091.351562 503.429688 1113.910156 L 502.089844 1121.128906 L 509.25 1122.878906 C 516.9375 1124.738281 524.1875 1125.679688 531.003906 1125.679688 C 543.886719 1125.679688 555.09375 1122.320312 564.492188 1115.628906 C 578.558594 1105.640625 584.96875 1090.539062 587.800781 1080.460938 C 604.171875 1089.730469 619.140625 1099.320312 632.773438 1108.941406 C 623.652344 1109 612.949219 1110.769531 602.894531 1116.679688 C 587.738281 1125.648438 577.96875 1141.609375 573.796875 1164.210938 L 572.457031 1171.429688 L 579.617188 1173.171875 C 587.304688 1175.039062 594.554688 1175.941406 601.339844 1175.941406 C 614.222656 1175.941406 625.460938 1172.609375 634.859375 1165.921875 C 650.015625 1155.148438 656.269531 1138.441406 658.761719 1128.480469 C 720.039062 1177.648438 746.367188 1222 746.773438 1222.75 L 760.25 1214.96875 C 758.164062 1211.300781 722.0625 1150.300781 635.261719 1091.320312 "/>
<path fill-rule="nonzero" fill="rgb(100%, 100%, 100%)" fill-opacity="1" d="M 1192.808594 1456.070312 C 1211.480469 1463.601562 1224.898438 1478.109375 1239.710938 1494.128906 C 1261.710938 1517.910156 1286.640625 1544.898438 1338.179688 1559.238281 C 1349.101562 1562.261719 1360.148438 1563.820312 1371.171875 1564.21875 L 1218.828125 1446.488281 C 1210.421875 1449.878906 1201.738281 1453.078125 1192.808594 1456.070312 "/>
<path fill-rule="nonzero" fill="rgb(100%, 100%, 100%)" fill-opacity="1" d="M 1233.050781 1440.480469 L 1392.359375 1563.601562 C 1408.328125 1562.140625 1423.980469 1558.558594 1438.828125 1553.730469 L 1260 1427.558594 C 1251.5 1431.949219 1242.511719 1436.308594 1233.050781 1440.480469 "/>
<path fill-rule="nonzero" fill="rgb(100%, 100%, 100%)" fill-opacity="1" d="M 1273.289062 1420.46875 L 1454.300781 1548.191406 C 1467.089844 1543.179688 1479.070312 1537.429688 1489.898438 1531.570312 L 1298.96875 1405.398438 C 1291.28125 1410.199219 1282.660156 1415.300781 1273.289062 1420.46875 "/>
<path fill-rule="nonzero" fill="rgb(100%, 100%, 100%)" fill-opacity="1" d="M 1311.320312 1397.441406 L 1503.070312 1524.171875 C 1519.03125 1514.679688 1531.511719 1505.738281 1538.890625 1500.140625 L 1336.898438 1379.261719 C 1332.238281 1382.871094 1323.429688 1389.410156 1311.320312 1397.441406 "/>
<path fill-rule="nonzero" fill="rgb(100%, 100%, 100%)" fill-opacity="1" d="M 797.339844 1169.21875 C 802.566406 1187.519531 815.855469 1234.300781 832.660156 1294.921875 C 876.015625 1451.53125 1023.351562 1465.53125 1107.28125 1459.898438 C 1206.5 1453.300781 1297.851562 1391.371094 1324.421875 1371.789062 L 1286.269531 1348.949219 C 1220.410156 1383.5 1158.640625 1400.828125 1101.558594 1400.828125 C 1066.421875 1400.828125 1033.058594 1394.289062 1001.660156 1381.191406 C 881.335938 1330.988281 826.65625 1201.429688 812.308594 1161.53125 C 808.542969 1164.671875 804.152344 1167.101562 799.609375 1168.601562 C 798.863281 1168.851562 798.085938 1169.03125 797.339844 1169.21875 "/>
<path fill-rule="nonzero" fill="rgb(100%, 100%, 100%)" fill-opacity="1" d="M 1052.511719 1182.539062 C 1069 1198.628906 1116.988281 1242.761719 1159.851562 1256.449219 C 1194.269531 1267.410156 1223.210938 1259.410156 1238.5 1253.03125 L 1155.519531 1214.25 C 1118.179688 1198.191406 1088.488281 1172.019531 1079.238281 1163.371094 C 1068.878906 1171.769531 1059.511719 1178.148438 1052.511719 1182.539062 "/>
<path fill-rule="nonzero" fill="rgb(100%, 100%, 100%)" fill-opacity="1" d="M 1089.578125 1154.589844 C 1101.53125 1165.519531 1140.371094 1198.601562 1184.058594 1209.929688 C 1237.058594 1223.679688 1273.761719 1204.359375 1290.441406 1192.121094 L 1210.078125 1177.191406 C 1154.589844 1169 1102.398438 1146.441406 1099.570312 1145.191406 C 1096.199219 1148.488281 1092.871094 1151.628906 1089.578125 1154.589844 "/>
<path fill-rule="nonzero" fill="rgb(100%, 100%, 100%)" fill-opacity="1" d="M 1109.53125 1134.769531 C 1127.300781 1141.988281 1193.460938 1167.199219 1249.050781 1166.699219 C 1292.589844 1166.230469 1321 1143.199219 1334.230469 1129.261719 L 1241.171875 1129.261719 C 1239.121094 1129.261719 1237.101562 1129.289062 1235.070312 1129.289062 C 1181.171875 1129.289062 1125.019531 1123.308594 1121.480469 1122.941406 L 1121.789062 1120.078125 C 1117.800781 1125.269531 1113.699219 1130.160156 1109.53125 1134.769531 "/>
<path fill-rule="nonzero" fill="rgb(100%, 100%, 100%)" fill-opacity="1" d="M 1129.011719 1110.179688 C 1155.308594 1112.699219 1259.808594 1121.691406 1306.46875 1109.738281 C 1343.160156 1100.351562 1364.570312 1068.601562 1373.78125 1051.359375 L 1274.71875 1070.28125 L 1274.628906 1069.78125 C 1220.601562 1079.871094 1157.519531 1087.03125 1141.980469 1088.710938 C 1138 1096.300781 1133.648438 1103.460938 1129.011719 1110.179688 "/>
<path fill-rule="nonzero" fill="rgb(100%, 100%, 100%)" fill-opacity="1" d="M 1148.828125 1074.421875 C 1181.921875 1070.589844 1277.03125 1058.859375 1324.359375 1044.570312 C 1371.511719 1030.351562 1396.75 992.601562 1407.679688 971.28125 C 1403.910156 972.808594 1400.019531 974.300781 1396.070312 975.730469 C 1304.351562 1008.78125 1175.320312 1047 1156.710938 1052.480469 C 1154.5 1060.140625 1151.820312 1067.421875 1148.828125 1074.421875 "/>
<path fill-rule="nonzero" fill="rgb(100%, 100%, 100%)" fill-opacity="1" d="M 1160.46875 1037.351562 C 1194.269531 1027.328125 1308.328125 993.039062 1391.488281 963.101562 C 1481.160156 930.789062 1515.578125 869.480469 1526.839844 842.339844 L 1409.421875 891.019531 C 1316.019531 934.621094 1187.640625 992.128906 1164.300781 1002.589844 C 1164.269531 1003.550781 1164.238281 1004.519531 1164.210938 1005.519531 C 1163.828125 1016.628906 1162.53125 1027.238281 1160.46875 1037.351562 "/>
<path fill-rule="nonzero" fill="rgb(100%, 100%, 100%)" fill-opacity="1" d="M 1163.089844 944.699219 C 1164.050781 958.238281 1164.578125 972.621094 1164.519531 987.738281 C 1206.25 969.039062 1375.738281 892.949219 1458.089844 853.078125 C 1519.929688 823.140625 1542.621094 758.089844 1549.941406 728.78125 L 1494.320312 763.480469 C 1491.148438 765.871094 1487.910156 768.238281 1484.519531 770.539062 C 1469.199219 780.839844 1448.410156 793.390625 1424.699219 806.960938 L 1424.300781 807.210938 C 1375.988281 834.839844 1315.621094 866.738281 1264.890625 892.980469 C 1214.160156 919.210938 1173.011719 939.761719 1163.089844 944.699219 "/>
<path fill-rule="nonzero" fill="rgb(100%, 100%, 100%)" fill-opacity="1" d="M 948.839844 956.621094 C 971.996094 1055.75 968.324219 1096.769531 965.894531 1109.308594 C 977.160156 1120.171875 987.992188 1131.371094 998.417969 1143.261719 C 1007.351562 1129.480469 1013.328125 1113.480469 1017.28125 1097.078125 C 1021.921875 1077.96875 1023.96875 1058.109375 1024.71875 1038.191406 C 1025.058594 1028.230469 1025.03125 1018.28125 1025 1008.039062 C 1024.96875 997.859375 1025 987.679688 1025.121094 977.46875 C 1025.558594 957.03125 1026.148438 936.421875 1029.601562 915.628906 C 1031.351562 905.269531 1033.839844 894.808594 1037.730469 884.699219 C 1039.898438 878.941406 1042.640625 873.339844 1045.761719 867.960938 C 1018.621094 820.429688 965.367188 784.980469 946.195312 773.25 C 940.15625 794.878906 926.496094 860.859375 948.839844 956.621094 "/>
<path fill-rule="nonzero" fill="rgb(100%, 100%, 100%)" fill-opacity="1" d="M 950.644531 760.210938 C 955.65625 763.171875 963.871094 768.269531 973.832031 775.238281 C 985.378906 754.328125 1020.859375 687.820312 1030.320312 643.410156 C 1037.289062 610.699219 1030.101562 585.648438 1024.03125 571.921875 L 950.644531 760.210938 "/>
<path fill-rule="nonzero" fill="rgb(100%, 100%, 100%)" fill-opacity="1" d="M 984.785156 783.238281 C 992.101562 788.75 999.914062 795.070312 1007.789062 802.101562 C 1018.148438 787.21875 1044.699219 747.609375 1061.878906 708.050781 C 1076.21875 675.03125 1065.550781 642.039062 1057.828125 625.140625 L 1033.960938 678.480469 C 1018.710938 721.03125 993.46875 767.679688 984.785156 783.238281 "/>
<path fill-rule="nonzero" fill="rgb(100%, 100%, 100%)" fill-opacity="1" d="M 1017.710938 811.371094 C 1025.148438 818.601562 1032.46875 826.46875 1039.25 834.898438 C 1049.089844 824.351562 1074.921875 794.789062 1093.621094 756.851562 C 1109.179688 725.320312 1101.371094 695.199219 1095.238281 679.820312 L 1072.238281 717.878906 C 1053.75 758.898438 1027.179688 797.960938 1017.710938 811.371094 "/>
<path fill-rule="nonzero" fill="rgb(100%, 100%, 100%)" fill-opacity="1" d="M 1047.5 845.761719 C 1049.738281 848.96875 1051.921875 852.210938 1053.96875 855.539062 C 1060.378906 847.128906 1067.730469 839.601562 1075.539062 832.910156 C 1083.539062 826 1091.941406 819.78125 1100.46875 813.898438 C 1103.359375 811.898438 1106.289062 810.011719 1109.210938 808.109375 C 1134.890625 782.179688 1130.351562 751.21875 1125.179688 734.78125 L 1098.070312 777.199219 C 1078.5 811.96875 1055.429688 837.460938 1047.5 845.761719 "/>
<path fill-rule="nonzero" fill="rgb(100%, 100%, 100%)" fill-opacity="1" d="M 697.964844 1154.398438 C 697.933594 1160.21875 698.089844 1166.109375 698.402344 1171.929688 L 737.335938 1146.691406 L 740.507812 1144.628906 L 744.027344 1146.339844 C 748.039062 1147.738281 752.585938 1149.238281 756.910156 1150.449219 C 761.265625 1151.671875 765.65625 1152.71875 770.011719 1153.5 C 778.695312 1154.960938 787.410156 1155.398438 794.816406 1153.351562 C 802.257812 1151.390625 808.011719 1146.558594 812.027344 1139.339844 C 816.167969 1132.121094 819.21875 1123.378906 823.480469 1113.789062 C 824.507812 1116.21875 825.222656 1118.710938 825.847656 1121.261719 C 826.28125 1123.78125 826.6875 1126.390625 826.75 1129.011719 C 826.71875 1131.621094 826.777344 1134.300781 826.21875 1136.941406 C 825.96875 1138.28125 825.847656 1139.621094 825.441406 1140.929688 C 825.035156 1142.269531 824.664062 1143.609375 824.195312 1144.910156 C 823.636719 1146.308594 822.984375 1147.710938 822.296875 1149.078125 C 829.921875 1171.859375 882.863281 1317.109375 1006.921875 1368.808594 C 1083.660156 1400.800781 1173.050781 1391.371094 1272.730469 1340.828125 L 1149.550781 1267.070312 C 1102.648438 1249.511719 1053.96875 1203.078125 1040.429688 1189.539062 C 1040.089844 1189.699219 1039.898438 1189.789062 1039.871094 1189.820312 L 1039.03125 1188.140625 C 1037.820312 1186.898438 1037.070312 1186.121094 1036.820312 1185.871094 L 1037.570312 1185.148438 L 1033.929688 1177.75 C 1035.050781 1177.21875 1146.929688 1120.730469 1150.761719 1005.050781 C 1153.941406 909.96875 1132.488281 841.660156 1123.871094 818.378906 C 1119.109375 821.359375 1114.410156 824.410156 1109.738281 827.53125 C 1093.398438 838.730469 1077.71875 850.839844 1066.328125 865.929688 C 1060.601562 873.429688 1055.988281 881.648438 1052.570312 890.460938 C 1049.121094 899.300781 1046.808594 908.660156 1045.128906 918.28125 C 1043.421875 927.898438 1042.460938 937.761719 1041.769531 947.71875 C 1041.03125 957.648438 1040.679688 967.730469 1040.371094 977.789062 C 1040.121094 987.871094 1039.96875 997.949219 1039.871094 1008.101562 C 1039.808594 1018.148438 1039.75 1028.480469 1039.25 1038.820312 C 1038.21875 1059.421875 1035.890625 1080.121094 1030.75 1100.441406 C 1025.589844 1120.640625 1017.589844 1140.769531 1004.269531 1157.859375 C 1002.648438 1160.039062 1000.71875 1161.96875 998.980469 1164.019531 C 996.988281 1165.890625 995.152344 1167.878906 993.003906 1169.589844 C 988.863281 1173.109375 984.257812 1176.160156 979.371094 1178.558594 C 974.484375 1180.980469 969.320312 1182.789062 964.027344 1183.75 C 958.707031 1184.589844 953.289062 1185 948.125 1183.71875 C 965.800781 1177.808594 979.214844 1167.199219 990.203125 1154.28125 C 978.34375 1140.589844 965.460938 1127.300781 952.171875 1114.75 C 938.074219 1101.46875 923.320312 1088.890625 907.851562 1077.351562 C 900.070312 1071.648438 892.199219 1066.050781 884.046875 1060.980469 C 880.03125 1058.328125 875.828125 1056 871.71875 1053.511719 C 867.519531 1051.269531 863.378906 1048.808594 859.085938 1046.75 C 850.589844 1042.359375 841.78125 1038.75 832.878906 1035.519531 C 823.945312 1032.371094 814.796875 1030.101562 805.585938 1028.480469 C 796.371094 1027.078125 787.066406 1026.679688 777.886719 1027.269531 C 768.769531 1028.109375 759.867188 1030.199219 751.683594 1033.808594 C 743.496094 1037.421875 736.121094 1042.640625 729.863281 1049.121094 C 723.609375 1055.589844 718.472656 1063.25 714.398438 1071.53125 C 706.210938 1088.179688 701.886719 1106.878906 699.675781 1125.769531 C 698.585938 1135.261719 698.027344 1144.820312 697.964844 1154.398438 "/>
<path fill-rule="nonzero" fill="rgb(100%, 100%, 100%)" fill-opacity="1" d="M 1154.46875 878.910156 C 1157.421875 894.039062 1160.070312 911.21875 1161.898438 930.261719 C 1193.839844 914.328125 1327.160156 847.289062 1417.539062 795.558594 L 1486.820312 752.308594 C 1537.980469 713.121094 1556.378906 659.691406 1562.601562 633.671875 L 1507.640625 671.761719 L 1507.609375 671.730469 C 1501.109375 676.898438 1494.441406 681.78125 1487.71875 686.511719 C 1482.898438 690 1477.980469 693.359375 1473.058594 696.691406 C 1468.148438 700.050781 1463.171875 703.261719 1458.21875 706.519531 C 1438.328125 719.46875 1418.160156 731.859375 1397.871094 744 C 1357.261719 768.238281 1316.148438 791.488281 1274.78125 814.328125 C 1234.890625 836.269531 1194.828125 857.808594 1154.46875 878.910156 "/>
<path fill-rule="nonzero" fill="rgb(100%, 100%, 100%)" fill-opacity="1" d="M 1135.570312 811.160156 C 1139.25 820.558594 1145.691406 839.070312 1151.570312 865.21875 C 1190.691406 844.769531 1229.589844 823.820312 1268.28125 802.539062 C 1309.550781 779.789062 1350.570312 756.570312 1390.960938 732.449219 C 1411.160156 720.371094 1431.199219 708.050781 1450.871094 695.261719 C 1455.761719 692.019531 1460.710938 688.851562 1465.53125 685.519531 C 1470.390625 682.28125 1475.210938 678.949219 1479.941406 675.558594 C 1489.5 668.839844 1498.828125 661.828125 1507.480469 654.390625 C 1509.628906 652.53125 1511.871094 650.71875 1513.800781 648.730469 C 1515.761719 646.769531 1517.910156 644.871094 1519.46875 642.820312 L 1522.050781 639.828125 L 1524.511719 636.308594 C 1526.160156 633.949219 1527.839844 631.609375 1529.429688 629.25 C 1535.710938 619.628906 1541.351562 609.609375 1546.261719 599.25 C 1551.179688 588.878906 1555.261719 578.140625 1558.589844 567.191406 C 1560.210938 561.679688 1561.699219 556.171875 1562.851562 550.570312 C 1562.980469 550.070312 1563.070312 549.539062 1563.160156 549.011719 C 1550.738281 557.640625 1538.328125 566.191406 1525.820312 574.691406 C 1508.949219 586.050781 1491.988281 597.28125 1474.988281 608.429688 C 1440.980469 630.710938 1406.769531 652.648438 1372.171875 674.03125 C 1337.5 695.289062 1302.640625 716.230469 1267.320312 736.429688 C 1258.539062 741.570312 1249.640625 746.519531 1240.769531 751.53125 L 1214.191406 766.398438 C 1196.449219 776.269531 1178.710938 786.101562 1161.160156 796.160156 C 1152.570312 801.070312 1144.039062 806.050781 1135.570312 811.160156 "/>
<path fill-rule="nonzero" fill="rgb(22.140503%, 21.780396%, 22.142029%)" fill-opacity="1" d="M 697.964844 1154.398438 C 698.027344 1144.820312 698.585938 1135.261719 699.675781 1125.769531 C 701.886719 1106.878906 706.210938 1088.179688 714.398438 1071.53125 C 718.472656 1063.25 723.609375 1055.589844 729.863281 1049.121094 C 736.121094 1042.640625 743.496094 1037.421875 751.683594 1033.808594 C 759.867188 1030.199219 768.769531 1028.109375 777.886719 1027.269531 C 787.066406 1026.679688 796.371094 1027.078125 805.585938 1028.480469 C 814.796875 1030.101562 823.945312 1032.371094 832.878906 1035.519531 C 841.78125 1038.75 850.589844 1042.359375 859.085938 1046.75 C 863.378906 1048.808594 867.519531 1051.269531 871.71875 1053.511719 C 875.828125 1056 880.03125 1058.328125 884.046875 1060.980469 C 892.199219 1066.050781 900.070312 1071.648438 907.851562 1077.351562 C 923.320312 1088.890625 938.074219 1101.46875 952.171875 1114.75 C 965.460938 1127.300781 978.34375 1140.589844 990.203125 1154.28125 C 979.214844 1167.199219 965.800781 1177.808594 948.125 1183.71875 C 953.289062 1185 958.707031 1184.589844 964.027344 1183.75 C 969.320312 1182.789062 974.484375 1180.980469 979.371094 1178.558594 C 984.257812 1176.160156 988.863281 1173.109375 993.003906 1169.589844 C 995.152344 1167.878906 996.988281 1165.890625 998.980469 1164.019531 C 1000.71875 1161.96875 1002.648438 1160.039062 1004.269531 1157.859375 C 1017.589844 1140.769531 1025.589844 1120.640625 1030.75 1100.441406 C 1035.890625 1080.121094 1038.21875 1059.421875 1039.25 1038.820312 C 1039.75 1028.480469 1039.808594 1018.148438 1039.871094 1008.101562 C 1039.96875 997.949219 1040.121094 987.871094 1040.371094 977.789062 C 1040.679688 967.730469 1041.03125 957.648438 1041.769531 947.71875 C 1042.460938 937.761719 1043.421875 927.898438 1045.128906 918.28125 C 1046.808594 908.660156 1049.121094 899.300781 1052.570312 890.460938 C 1055.988281 881.648438 1060.601562 873.429688 1066.328125 865.929688 C 1077.71875 850.839844 1093.398438 838.730469 1109.738281 827.53125 C 1114.410156 824.410156 1119.109375 821.359375 1123.871094 818.378906 C 1132.488281 841.660156 1153.941406 909.96875 1150.761719 1005.050781 C 1146.929688 1120.730469 1035.050781 1177.21875 1033.929688 1177.75 L 1037.570312 1185.148438 L 1036.820312 1185.871094 C 1037.070312 1186.121094 1037.820312 1186.898438 1039.03125 1188.140625 L 1039.871094 1189.820312 C 1039.898438 1189.789062 1040.089844 1189.699219 1040.429688 1189.539062 C 1053.96875 1203.078125 1102.648438 1249.511719 1149.550781 1267.070312 L 1272.730469 1340.828125 C 1173.050781 1391.371094 1083.660156 1400.800781 1006.921875 1368.808594 C 882.863281 1317.109375 829.921875 1171.859375 822.296875 1149.078125 C 822.984375 1147.710938 823.636719 1146.308594 824.195312 1144.910156 C 824.664062 1143.609375 825.035156 1142.269531 825.441406 1140.929688 C 825.847656 1139.621094 825.96875 1138.28125 826.21875 1136.941406 C 826.777344 1134.300781 826.71875 1131.621094 826.75 1129.011719 C 826.6875 1126.390625 826.28125 1123.78125 825.847656 1121.261719 C 825.222656 1118.710938 824.507812 1116.21875 823.480469 1113.789062 C 819.21875 1123.378906 816.167969 1132.121094 812.027344 1139.339844 C 808.011719 1146.558594 802.257812 1151.390625 794.816406 1153.351562 C 787.410156 1155.398438 778.695312 1154.960938 770.011719 1153.5 C 765.65625 1152.71875 761.265625 1151.671875 756.910156 1150.449219 C 752.585938 1149.238281 748.039062 1147.738281 744.027344 1146.339844 L 740.507812 1144.628906 L 737.335938 1146.691406 L 698.402344 1171.929688 C 698.089844 1166.109375 697.933594 1160.21875 697.964844 1154.398438 Z M 797.339844 1169.21875 C 798.085938 1169.03125 798.863281 1168.851562 799.609375 1168.601562 C 804.152344 1167.101562 808.542969 1164.671875 812.308594 1161.53125 C 826.65625 1201.429688 881.335938 1330.988281 1001.660156 1381.191406 C 1033.058594 1394.289062 1066.421875 1400.828125 1101.558594 1400.828125 C 1158.640625 1400.828125 1220.410156 1383.5 1286.269531 1348.949219 L 1324.421875 1371.789062 C 1297.851562 1391.371094 1206.5 1453.300781 1107.28125 1459.898438 C 1023.351562 1465.53125 876.015625 1451.53125 832.660156 1294.921875 C 815.855469 1234.300781 802.566406 1187.519531 797.339844 1169.21875 Z M 1192.808594 1456.070312 C 1201.738281 1453.078125 1210.421875 1449.878906 1218.828125 1446.488281 L 1371.171875 1564.21875 C 1360.148438 1563.820312 1349.101562 1562.261719 1338.179688 1559.238281 C 1286.640625 1544.898438 1261.710938 1517.910156 1239.710938 1494.128906 C 1224.898438 1478.109375 1211.480469 1463.601562 1192.808594 1456.070312 Z M 1233.050781 1440.480469 C 1242.511719 1436.308594 1251.5 1431.949219 1260 1427.558594 L 1438.828125 1553.730469 C 1423.980469 1558.558594 1408.328125 1562.140625 1392.359375 1563.601562 Z M 1454.300781 1548.191406 L 1273.289062 1420.46875 C 1282.660156 1415.300781 1291.28125 1410.199219 1298.96875 1405.398438 L 1489.898438 1531.570312 C 1479.070312 1537.429688 1467.089844 1543.179688 1454.300781 1548.191406 Z M 1503.070312 1524.171875 L 1311.320312 1397.441406 C 1323.429688 1389.410156 1332.238281 1382.871094 1336.898438 1379.261719 L 1538.890625 1500.140625 C 1531.511719 1505.738281 1519.03125 1514.679688 1503.070312 1524.171875 Z M 1159.851562 1256.449219 C 1116.988281 1242.761719 1069 1198.628906 1052.511719 1182.539062 C 1059.511719 1178.148438 1068.878906 1171.769531 1079.238281 1163.371094 C 1088.488281 1172.019531 1118.179688 1198.191406 1155.519531 1214.25 L 1238.5 1253.03125 C 1223.210938 1259.410156 1194.269531 1267.410156 1159.851562 1256.449219 Z M 1184.058594 1209.929688 C 1140.371094 1198.601562 1101.53125 1165.519531 1089.578125 1154.589844 C 1092.871094 1151.628906 1096.199219 1148.488281 1099.570312 1145.191406 C 1102.398438 1146.441406 1154.589844 1169 1210.078125 1177.191406 L 1290.441406 1192.121094 C 1273.761719 1204.359375 1237.058594 1223.679688 1184.058594 1209.929688 Z M 1249.050781 1166.699219 C 1193.460938 1167.199219 1127.300781 1141.988281 1109.53125 1134.769531 C 1113.699219 1130.160156 1117.800781 1125.269531 1121.789062 1120.078125 L 1121.480469 1122.941406 C 1125.019531 1123.308594 1181.171875 1129.289062 1235.070312 1129.289062 C 1237.101562 1129.289062 1239.121094 1129.261719 1241.171875 1129.261719 L 1334.230469 1129.261719 C 1321 1143.199219 1292.589844 1166.230469 1249.050781 1166.699219 Z M 1306.46875 1109.738281 C 1259.808594 1121.691406 1155.308594 1112.699219 1129.011719 1110.179688 C 1133.648438 1103.460938 1138 1096.300781 1141.980469 1088.710938 C 1157.519531 1087.03125 1220.601562 1079.871094 1274.628906 1069.78125 L 1274.71875 1070.28125 L 1373.78125 1051.359375 C 1364.570312 1068.601562 1343.160156 1100.351562 1306.46875 1109.738281 Z M 1324.359375 1044.570312 C 1277.03125 1058.859375 1181.921875 1070.589844 1148.828125 1074.421875 C 1151.820312 1067.421875 1154.5 1060.140625 1156.710938 1052.480469 C 1175.320312 1047 1304.351562 1008.78125 1396.070312 975.730469 C 1400.019531 974.300781 1403.910156 972.808594 1407.679688 971.28125 C 1396.75 992.601562 1371.511719 1030.351562 1324.359375 1044.570312 Z M 1391.488281 963.101562 C 1308.328125 993.039062 1194.269531 1027.328125 1160.46875 1037.351562 C 1162.53125 1027.238281 1163.828125 1016.628906 1164.210938 1005.519531 C 1164.238281 1004.519531 1164.269531 1003.550781 1164.300781 1002.589844 C 1187.640625 992.128906 1316.019531 934.621094 1409.421875 891.019531 L 1526.839844 842.339844 C 1515.578125 869.480469 1481.160156 930.789062 1391.488281 963.101562 Z M 1458.089844 853.078125 C 1375.738281 892.949219 1206.25 969.039062 1164.519531 987.738281 C 1164.578125 972.621094 1164.050781 958.238281 1163.089844 944.699219 C 1173.011719 939.761719 1214.160156 919.210938 1264.890625 892.980469 C 1315.621094 866.738281 1375.988281 834.839844 1424.300781 807.210938 L 1424.699219 806.960938 C 1448.410156 793.390625 1469.199219 780.839844 1484.519531 770.539062 C 1487.910156 768.238281 1491.148438 765.871094 1494.320312 763.480469 L 1549.941406 728.78125 C 1542.621094 758.089844 1519.929688 823.140625 1458.089844 853.078125 Z M 1486.820312 752.308594 L 1417.539062 795.558594 C 1327.160156 847.289062 1193.839844 914.328125 1161.898438 930.261719 C 1160.070312 911.21875 1157.421875 894.039062 1154.46875 878.910156 C 1194.828125 857.808594 1234.890625 836.269531 1274.78125 814.328125 C 1316.148438 791.488281 1357.261719 768.238281 1397.871094 744 C 1418.160156 731.859375 1438.328125 719.46875 1458.21875 706.519531 C 1463.171875 703.261719 1468.148438 700.050781 1473.058594 696.691406 C 1477.980469 693.359375 1482.898438 690 1487.71875 686.511719 C 1494.441406 681.78125 1501.109375 676.898438 1507.609375 671.730469 L 1507.640625 671.761719 L 1562.601562 633.671875 C 1556.378906 659.691406 1537.980469 713.121094 1486.820312 752.308594 Z M 1529.429688 629.25 C 1527.839844 631.609375 1526.160156 633.949219 1524.511719 636.308594 L 1522.050781 639.828125 L 1519.46875 642.820312 C 1517.910156 644.871094 1515.761719 646.769531 1513.800781 648.730469 C 1511.871094 650.71875 1509.628906 652.53125 1507.480469 654.390625 C 1498.828125 661.828125 1489.5 668.839844 1479.941406 675.558594 C 1475.210938 678.949219 1470.390625 682.28125 1465.53125 685.519531 C 1460.710938 688.851562 1455.761719 692.019531 1450.871094 695.261719 C 1431.199219 708.050781 1411.160156 720.371094 1390.960938 732.449219 C 1350.570312 756.570312 1309.550781 779.789062 1268.28125 802.539062 C 1229.589844 823.820312 1190.691406 844.769531 1151.570312 865.21875 C 1145.691406 839.070312 1139.25 820.558594 1135.570312 811.160156 C 1144.039062 806.050781 1152.570312 801.070312 1161.160156 796.160156 C 1178.710938 786.101562 1196.449219 776.269531 1214.191406 766.398438 L 1240.769531 751.53125 C 1249.640625 746.519531 1258.539062 741.570312 1267.320312 736.429688 C 1302.640625 716.230469 1337.5 695.289062 1372.171875 674.03125 C 1406.769531 652.648438 1440.980469 630.710938 1474.988281 608.429688 C 1491.988281 597.28125 1508.949219 586.050781 1525.820312 574.691406 C 1538.328125 566.191406 1550.738281 557.640625 1563.160156 549.011719 C 1563.070312 549.539062 1562.980469 550.070312 1562.851562 550.570312 C 1561.699219 556.171875 1560.210938 561.679688 1558.589844 567.191406 C 1555.261719 578.140625 1551.179688 588.878906 1546.261719 599.25 C 1541.351562 609.609375 1535.710938 619.628906 1529.429688 629.25 Z M 1109.210938 808.109375 C 1106.289062 810.011719 1103.359375 811.898438 1100.46875 813.898438 C 1091.941406 819.78125 1083.539062 826 1075.539062 832.910156 C 1067.730469 839.601562 1060.378906 847.128906 1053.96875 855.539062 C 1051.921875 852.210938 1049.738281 848.96875 1047.5 845.761719 C 1055.429688 837.460938 1078.5 811.96875 1098.070312 777.199219 L 1125.179688 734.78125 C 1130.351562 751.21875 1134.890625 782.179688 1109.210938 808.109375 Z M 1093.621094 756.851562 C 1074.921875 794.789062 1049.089844 824.351562 1039.25 834.898438 C 1032.46875 826.46875 1025.148438 818.601562 1017.710938 811.371094 C 1027.179688 797.960938 1053.75 758.898438 1072.238281 717.878906 L 1095.238281 679.820312 C 1101.371094 695.199219 1109.179688 725.320312 1093.621094 756.851562 Z M 1061.878906 708.050781 C 1044.699219 747.609375 1018.148438 787.21875 1007.789062 802.101562 C 999.914062 795.070312 992.101562 788.75 984.785156 783.238281 C 993.46875 767.679688 1018.710938 721.03125 1033.960938 678.480469 L 1057.828125 625.140625 C 1065.550781 642.039062 1076.21875 675.03125 1061.878906 708.050781 Z M 1030.320312 643.410156 C 1020.859375 687.820312 985.378906 754.328125 973.832031 775.238281 C 963.871094 768.269531 955.65625 763.171875 950.644531 760.210938 L 1024.03125 571.921875 C 1030.101562 585.648438 1037.289062 610.699219 1030.320312 643.410156 Z M 946.195312 773.25 C 965.367188 784.980469 1018.621094 820.429688 1045.761719 867.960938 C 1042.640625 873.339844 1039.898438 878.941406 1037.730469 884.699219 C 1033.839844 894.808594 1031.351562 905.269531 1029.601562 915.628906 C 1026.148438 936.421875 1025.558594 957.03125 1025.121094 977.46875 C 1025 987.679688 1024.96875 997.859375 1025 1008.039062 C 1025.03125 1018.28125 1025.058594 1028.230469 1024.71875 1038.191406 C 1023.96875 1058.109375 1021.921875 1077.96875 1017.28125 1097.078125 C 1013.328125 1113.480469 1007.351562 1129.480469 998.417969 1143.261719 C 987.992188 1131.371094 977.160156 1120.171875 965.894531 1109.308594 C 968.324219 1096.769531 971.996094 1055.75 948.839844 956.621094 C 926.496094 860.859375 940.15625 794.878906 946.195312 773.25 Z M 684.519531 1154.308594 C 684.488281 1164.390625 684.800781 1174.230469 685.890625 1184.53125 L 687.039062 1195.328125 L 696.222656 1189.351562 L 741.226562 1160.191406 C 744.773438 1162.089844 748.289062 1163.648438 751.992188 1165.078125 C 756.816406 1166.921875 761.765625 1168.410156 766.929688 1169.5 C 772.347656 1170.621094 778.074219 1171.300781 783.894531 1171.179688 C 788.71875 1188.019531 802.347656 1235.851562 819.683594 1298.5 C 837.921875 1364.359375 875.953125 1412.71875 932.75 1442.28125 C 973.335938 1463.421875 1023.378906 1474.339844 1078.839844 1474.339844 C 1088.460938 1474.339844 1098.261719 1474 1108.191406 1473.351562 C 1127.730469 1472.039062 1146.871094 1468.710938 1165.300781 1464.101562 C 1194.328125 1464.878906 1210.050781 1481.839844 1229.839844 1503.25 C 1251.910156 1527.121094 1279.359375 1556.820312 1334.570312 1572.191406 C 1348.890625 1576.171875 1363.261719 1577.878906 1377.488281 1577.878906 C 1467.960938 1577.878906 1551.058594 1507.890625 1555.070312 1504.46875 L 1562.171875 1498.398438 L 1339.828125 1365.351562 L 1189.449219 1275.308594 C 1191.28125 1275.378906 1193.058594 1275.441406 1194.828125 1275.441406 C 1231.488281 1275.441406 1256.230469 1259.261719 1257.570312 1258.351562 L 1267.5 1251.71875 L 1216.929688 1228.101562 C 1217.921875 1228.128906 1218.949219 1228.128906 1219.921875 1228.128906 C 1276.53125 1228.128906 1308.800781 1194.429688 1310.421875 1192.691406 L 1318.789062 1183.71875 L 1279.511719 1176.410156 C 1328.660156 1164.519531 1352.929688 1128.011719 1354.148438 1126.179688 L 1360.871094 1115.808594 L 1328.75 1115.808594 C 1372.789062 1094.460938 1390.929688 1046.878906 1391.769531 1044.609375 L 1395.941406 1033.429688 L 1366.839844 1038.96875 C 1405.398438 1012.699219 1422.148438 973.738281 1426.191406 963 C 1523.921875 915.171875 1543.800781 835.589844 1544.679688 831.921875 L 1547.660156 819.121094 L 1504.898438 836.859375 C 1556.160156 788.53125 1565.871094 719.191406 1566.339844 715.609375 L 1568.171875 701.511719 L 1536.300781 721.398438 C 1573.121094 672.511719 1578.628906 622.308594 1578.910156 619.480469 L 1580.339844 605 L 1545.300781 629.28125 C 1550.089844 621.410156 1554.480469 613.308594 1558.429688 604.96875 C 1563.628906 594.019531 1567.921875 582.660156 1571.46875 571.050781 C 1573.179688 565.230469 1574.769531 559.351562 1576.019531 553.371094 C 1577.289062 547.328125 1578.320312 541.550781 1578.910156 534.980469 L 1580.191406 520.910156 L 1568.390625 529 L 1568.359375 529 C 1551.648438 540.328125 1534.691406 551.46875 1517.71875 562.550781 C 1500.789062 573.730469 1483.800781 584.710938 1466.710938 595.671875 C 1432.609375 617.550781 1398.179688 638.960938 1363.578125 660.058594 C 1329.03125 681.21875 1294.269531 702.039062 1259.101562 722.121094 C 1250.351562 727.21875 1241.480469 732.109375 1232.679688 737.089844 L 1206.128906 751.929688 C 1188.390625 761.769531 1170.589844 771.601562 1152.910156 781.71875 C 1147.398438 784.859375 1141.921875 788.03125 1136.449219 791.269531 C 1151.628906 754.269531 1132.769531 717.480469 1132.488281 716.980469 L 1127.109375 706.769531 L 1116.089844 724.011719 C 1118.269531 689.589844 1102.519531 663.609375 1101.621094 662.140625 L 1095.800781 652.808594 L 1082.480469 674.871094 C 1083.160156 637.339844 1063.960938 607.738281 1062.898438 606.121094 L 1056.148438 595.949219 L 1046.691406 617.109375 C 1046.878906 577.269531 1029.289062 553.21875 1028.359375 552 L 1021.109375 542.320312 L 938.789062 753.609375 L 938.757812 753.578125 L 936.050781 760.648438 L 936.019531 760.738281 L 936.019531 760.769531 C 934.835938 763.878906 907.355469 838.078125 935.738281 959.671875 C 954.441406 1039.808594 955.160156 1080.429688 953.789062 1097.980469 C 941.652344 1086.960938 929.078125 1076.410156 915.882812 1066.578125 C 907.851562 1060.660156 899.730469 1054.910156 891.234375 1049.621094 C 887.0625 1046.878906 882.675781 1044.421875 878.382812 1041.839844 C 873.960938 1039.46875 869.664062 1036.921875 865.121094 1034.738281 C 847.195312 1025.679688 827.964844 1018.589844 807.703125 1015.191406 C 797.523438 1013.640625 787.160156 1013.171875 776.765625 1013.890625 C 766.371094 1014.789062 755.945312 1017.21875 746.203125 1021.511719 C 736.464844 1025.808594 727.53125 1032.128906 720.1875 1039.78125 C 712.808594 1047.441406 706.929688 1056.28125 702.351562 1065.550781 C 693.203125 1084.191406 688.660156 1104.300781 686.324219 1124.25 C 685.175781 1134.238281 684.582031 1144.289062 684.519531 1154.308594 "/>
</svg>
