<?xml version="1.0" encoding="utf-8"?>
<svg viewBox="778.6000366210938 611.1000366210938 160.10003662109375 137.7000732421875" width="160.10003662109375" height="137.7000732421875" xmlns="http://www.w3.org/2000/svg"><g transform="matrix(0.9999999999999999, 0, 0, 0.9999999999999999, -1.1368683772161603e-13, 2.842170943040401e-14)">
		<linearGradient id="SVGID_61_" gradientUnits="userSpaceOnUse" x1="778.7834" y1="680" x2="938.7003" y2="680">
			<stop offset="0" style="stop-color:#1DB3DB"/>
			<stop offset="0.221" style="stop-color:#3EB9D9"/>
			<stop offset="0.6904" style="stop-color:#5FC4D6"/>
			<stop offset="1" style="stop-color:#69CAD6"/>
		</linearGradient>
		<path class="st62" d="M890,611.1c-11,0-21.4,3.6-30,10.3l-1.3,1.1l-1.4-1.1c-8.6-6.7-18.9-10.3-29.9-10.3&#10;&#9;&#9;&#9;c-13.9,0-26.5,5.9-35.4,15.3c3.6,1.8,12,4.6,28.6,5.4c4,0.2,15.9,0.9,16.5,1.1c0.7,0.1,1.6,0.4,1.7,1.1c0.3,3.4-2.8,4.9-5.3,4.9&#10;&#9;&#9;&#9;c-1.9,0.1-11.9-0.3-13.5,2.7c-0.7,1.4,3.3,4.6,4.5,5.7c1.6,1.5,3.1,2.9,4.7,4.4c4.2,4,8.6,8.1,12.9,12.2c0.9,0.8,4.3,4.4,2.5,6.2&#10;&#9;&#9;&#9;c-1.8,1.8-5.3-1.2-6.6-2.3c-3.2-3-14.6-12.6-15-12.2l0,0c-0.5,0.5,17.3,18.2,17.3,18.2s5.4,5,3.4,7c-2,2-7-2.8-8.2-4&#10;&#9;&#9;&#9;c-3.9-3.6-17.8-15.7-18.3-15.2c-0.3,0.3,12.1,13.3,15.8,16.9c1.3,1.2,5.6,5.4,3.7,7.3c-1.9,1.9-6.3-2.1-7.4-3.1&#10;&#9;&#9;&#9;c-3.5-3.2-17.5-15.2-17.8-14.8l0,0c-0.3,0.3,8,9.5,11.4,12.7c1,0.9,2,2,2.5,3.3c0.5,1.3,0.5,2.1-0.1,2.8c0,0,0,0-0.1,0.1&#10;&#9;&#9;&#9;c-0.6,0.6-1.5,0.7-2.7,0.2c-1.3-0.6-2.4-1.2-3.1-2c-8.3-7.7-15.1-13.9-21.2-19.9c-2.6-2.6-5.4-9.4-8.2-14.7&#10;&#9;&#9;&#9;c-1.7-3.1-5.4-6.2-8.1-8.2c-2.1,5.4-3.3,11.3-3.3,17.5c0,35.4,26.4,53.2,47.6,67.4c8.6,5.8,16.8,11.3,22.1,17.2&#10;&#9;&#9;&#9;c2.6,2.9,6.3,4.5,10.1,4.5h0c3.9,0,7.5-1.7,10.1-4.6c5.2-5.8,13.3-11.3,22-17.1c3-2,6.1-4.1,9.2-6.3c-1.9-2.8-5.4-7.1-8.8-9&#10;&#9;&#9;&#9;c-5.2-2.8-12.1-5.6-14.7-8.2c-6.1-6.1-12.2-12.9-19.9-21.2c-0.7-0.8-1.4-1.8-2-3.1c-0.5-1.1-0.4-2,0.2-2.7c0,0,0,0,0.1-0.1&#10;&#9;&#9;&#9;c0.7-0.6,1.5-0.6,2.8-0.1c1.3,0.5,2.4,1.5,3.3,2.5c3.2,3.4,12.4,11.7,12.7,11.4l0,0c0.3-0.3-11.6-14.3-14.9-17.8&#10;&#9;&#9;&#9;c-1-1.1-5-5.5-3.1-7.4c1.9-1.9,6,2.4,7.3,3.7c3.5,3.7,16.5,16.1,16.9,15.8c0.4-0.4-11.6-14.4-15.2-18.3c-1.1-1.2-6-6.2-4-8.2&#10;&#9;&#9;&#9;c2-2,7,3.4,7,3.4s17.7,17.8,18.2,17.3l0,0c0.4-0.5-9.2-11.8-12.2-15c-1.2-1.2-4.1-4.8-2.3-6.6c1.8-1.8,5.4,1.6,6.2,2.5&#10;&#9;&#9;&#9;c4.1,4.3,8.2,8.7,12.2,12.9c1.5,1.6,2.9,3.1,4.4,4.7c1.2,1.2,4.4,5.3,5.7,4.5c3-1.6,2.7-11.6,2.7-13.5c0.1-2.4,1.6-5.5,4.9-5.3&#10;&#9;&#9;&#9;c0.7,0.1,1,1,1.1,1.7c0.1,0.6,0.9,12.5,1.1,16.5c0.8,15.6,3.3,23.9,5.1,27.9c13.2-11.9,23.9-27.2,23.9-49.6&#10;&#9;&#9;&#9;C938.7,632.9,916.9,611.1,890,611.1L890,611.1z M890,611.1" style="fill: rgb(204, 204, 204); fill-opacity: 1; stroke: rgb(204, 204, 204); stroke-opacity: 0;"/>
	</g></svg>